<?xml version="1.0" encoding="UTF-8"?>
<svg id="Layer_1" data-name="Layer 1" xmlns="http://www.w3.org/2000/svg" width="301.57" height="541.27" viewBox="0 0 301.57 541.27">
  <defs>
    <style>
      .cls-1, .cls-2, .cls-3 {
        fill: #f4f2ea;
      }

      .cls-2, .cls-4, .cls-3 {
        stroke: #ebe7e7;
      }

      .cls-4 {
        fill: none;
      }

      .cls-3 {
        stroke-linecap: round;
        stroke-linejoin: round;
        stroke-width: 3px;
      }
    </style>
  </defs>
  <g id="Group_51" data-name="Group 51">
    <path id="Subtraction_1-2" data-name="Subtraction 1-2" class="cls-1" d="m1.5,539.77V1.59s298.57,0,298.57,0v538.18s-11.34,0-11.34,0c-.09-4.43-1.92-8.65-5.1-11.74-3.18-3.12-7.45-4.86-11.9-4.85-4.45-.01-8.73,1.73-11.9,4.85-3.18,3.09-5.01,7.31-5.1,11.74h-14.37c-.09-4.43-1.92-8.65-5.1-11.74-3.18-3.12-7.45-4.86-11.9-4.85-4.45-.01-8.73,1.73-11.9,4.85-3.18,3.09-5.01,7.31-5.1,11.74h-14.37c-.09-4.43-1.92-8.65-5.1-11.74-3.18-3.12-7.45-4.86-11.9-4.85-4.45-.01-8.72,1.73-11.9,4.85-3.18,3.09-5.01,7.31-5.1,11.74h-14.37c-.09-4.43-1.92-8.65-5.1-11.74-3.18-3.12-7.45-4.86-11.9-4.85-4.45-.01-8.72,1.73-11.9,4.85-3.18,3.09-5.01,7.31-5.1,11.74h-14.37c-.09-4.43-1.92-8.65-5.1-11.74-3.18-3.12-7.45-4.86-11.9-4.85-4.45-.01-8.72,1.73-11.9,4.85-3.18,3.09-5.01,7.31-5.1,11.74h-14.37c-.09-4.43-1.92-8.65-5.1-11.74-3.18-3.12-7.45-4.86-11.9-4.85-4.45-.01-8.72,1.73-11.9,4.85-3.18,3.09-5.01,7.31-5.1,11.74H1.54s-.04,0-.04,0Z"/>
    <path id="Subtraction_1-3" data-name="Subtraction 1-3" class="cls-1" d="m1.5,539.77V1.59s298.57,0,298.57,0v538.18s-11.34,0-11.34,0c-.09-4.43-1.92-8.65-5.1-11.74-3.18-3.12-7.45-4.86-11.9-4.85-4.45-.01-8.73,1.73-11.9,4.85-3.18,3.09-5.01,7.31-5.1,11.74h-14.37c-.09-4.43-1.92-8.65-5.1-11.74-3.18-3.12-7.45-4.86-11.9-4.85-4.45-.01-8.73,1.73-11.9,4.85-3.18,3.09-5.01,7.31-5.1,11.74h-14.37c-.09-4.43-1.92-8.65-5.1-11.74-3.18-3.12-7.45-4.86-11.9-4.85-4.45-.01-8.72,1.73-11.9,4.85-3.18,3.09-5.01,7.31-5.1,11.74h-14.37c-.09-4.43-1.92-8.65-5.1-11.74-3.18-3.12-7.45-4.86-11.9-4.85-4.45-.01-8.72,1.73-11.9,4.85-3.18,3.09-5.01,7.31-5.1,11.74h-14.37c-.09-4.43-1.92-8.65-5.1-11.74-3.18-3.12-7.45-4.86-11.9-4.85-4.45-.01-8.72,1.73-11.9,4.85-3.18,3.09-5.01,7.31-5.1,11.74h-14.37c-.09-4.43-1.92-8.65-5.1-11.74-3.18-3.12-7.45-4.86-11.9-4.85-4.45-.01-8.72,1.73-11.9,4.85-3.18,3.09-5.01,7.31-5.1,11.74H1.54s-.04,0-.04,0Z"/>
    <path id="Subtraction_1-4" data-name="Subtraction 1-4" class="cls-3" d="m1.5,539.77V1.59s298.57,0,298.57,0v538.18s-11.34,0-11.34,0c-.09-4.43-1.92-8.65-5.1-11.74-3.18-3.12-7.45-4.86-11.9-4.85-4.45-.01-8.73,1.73-11.9,4.85-3.18,3.09-5.01,7.31-5.1,11.74h-14.37c-.09-4.43-1.92-8.65-5.1-11.74-3.18-3.12-7.45-4.86-11.9-4.85-4.45-.01-8.73,1.73-11.9,4.85-3.18,3.09-5.01,7.31-5.1,11.74h-14.37c-.09-4.43-1.92-8.65-5.1-11.74-3.18-3.12-7.45-4.86-11.9-4.85-4.45-.01-8.72,1.73-11.9,4.85-3.18,3.09-5.01,7.31-5.1,11.74h-14.37c-.09-4.43-1.92-8.65-5.1-11.74-3.18-3.12-7.45-4.86-11.9-4.85-4.45-.01-8.72,1.73-11.9,4.85-3.18,3.09-5.01,7.31-5.1,11.74h-14.37c-.09-4.43-1.92-8.65-5.1-11.74-3.18-3.12-7.45-4.86-11.9-4.85-4.45-.01-8.72,1.73-11.9,4.85-3.18,3.09-5.01,7.31-5.1,11.74h-14.37c-.09-4.43-1.92-8.65-5.1-11.74-3.18-3.12-7.45-4.86-11.9-4.85-4.45-.01-8.72,1.73-11.9,4.85-3.18,3.09-5.01,7.31-5.1,11.74H1.54s-.04,0-.04,0Z"/>
    <g id="Group_37" data-name="Group 37">
      <g id="Group_33" data-name="Group 33">
        <line id="Line_15" data-name="Line 15" class="cls-4" x1="299.5" y1="48.08" x2="1.31" y2="48.08"/>
        <line id="Line_21" data-name="Line 21" class="cls-4" x1="299.5" y1="116.1" x2="1.31" y2="116.1"/>
        <line id="Line_11" data-name="Line 11" class="cls-4" x1="299.5" y1="25.4" x2="1.31" y2="25.4"/>
        <line id="Line_17" data-name="Line 17" class="cls-4" x1="299.5" y1="93.43" x2="1.31" y2="93.43"/>
        <line id="Line_13" data-name="Line 13" class="cls-4" x1="299.5" y1="70.75" x2="1.31" y2="70.75"/>
        <line id="Line_19" data-name="Line 19" class="cls-4" x1="299.5" y1="138.78" x2="1.31" y2="138.78"/>
      </g>
      <g id="Group_34" data-name="Group 34">
        <line id="Line_15-2" data-name="Line 15-2" class="cls-4" x1="299.5" y1="184.13" x2="1.31" y2="184.13"/>
        <line id="Line_21-2" data-name="Line 21-2" class="cls-4" x1="299.5" y1="252.16" x2="1.31" y2="252.16"/>
        <line id="Line_11-2" data-name="Line 11-2" class="cls-4" x1="299.5" y1="161.46" x2="1.31" y2="161.46"/>
        <line id="Line_17-2" data-name="Line 17-2" class="cls-4" x1="299.5" y1="229.49" x2="1.31" y2="229.49"/>
        <line id="Line_13-2" data-name="Line 13-2" class="cls-4" x1="299.5" y1="206.81" x2="1.31" y2="206.81"/>
        <line id="Line_19-2" data-name="Line 19-2" class="cls-4" x1="299.5" y1="274.84" x2="1.31" y2="274.84"/>
      </g>
      <g id="Group_35" data-name="Group 35">
        <line id="Line_15-3" data-name="Line 15-3" class="cls-4" x1="299.5" y1="320.19" x2="1.31" y2="320.19"/>
        <line id="Line_21-3" data-name="Line 21-3" class="cls-4" x1="299.5" y1="388.22" x2="1.31" y2="388.22"/>
        <line id="Line_11-3" data-name="Line 11-3" class="cls-4" x1="299.5" y1="297.51" x2="1.31" y2="297.51"/>
        <line id="Line_17-3" data-name="Line 17-3" class="cls-4" x1="299.5" y1="365.54" x2="1.31" y2="365.54"/>
        <line id="Line_13-3" data-name="Line 13-3" class="cls-4" x1="299.5" y1="342.87" x2="1.31" y2="342.87"/>
        <line id="Line_19-3" data-name="Line 19-3" class="cls-4" x1="299.5" y1="410.9" x2="1.31" y2="410.9"/>
      </g>
      <g id="Group_36" data-name="Group 36">
        <line id="Line_15-4" data-name="Line 15-4" class="cls-4" x1="299.5" y1="456.25" x2="1.31" y2="456.25"/>
        <line id="Line_11-4" data-name="Line 11-4" class="cls-4" x1="299.5" y1="433.57" x2="1.31" y2="433.57"/>
        <line id="Line_17-4" data-name="Line 17-4" class="cls-4" x1="299.5" y1="501.6" x2="1.31" y2="501.6"/>
        <path id="Path_6" data-name="Path 6" class="cls-2" d="m299.5,478.93H1.31"/>
      </g>
    </g>
    <g id="Group_38" data-name="Group 38">
      <line id="Line_22" data-name="Line 22" class="cls-4" x1="299.41" y1="36.74" x2="1.59" y2="36.74"/>
      <line id="Line_23" data-name="Line 23" class="cls-4" x1="299.12" y1="59.41" x2="1.31" y2="59.41"/>
      <line id="Line_24" data-name="Line 24" class="cls-4" x1="299.12" y1="82.09" x2="1.31" y2="82.09"/>
      <line id="Line_25" data-name="Line 25" class="cls-4" x1="299.12" y1="104.77" x2="1.31" y2="104.77"/>
      <line id="Line_26" data-name="Line 26" class="cls-4" x1="299.12" y1="127.44" x2="1.31" y2="127.44"/>
      <line id="Line_27" data-name="Line 27" class="cls-4" x1="299.12" y1="150.12" x2="1.31" y2="150.12"/>
      <line id="Line_28" data-name="Line 28" class="cls-4" x1="299.12" y1="14.82" x2="1.31" y2="14.82"/>
      <line id="Line_29" data-name="Line 29" class="cls-4" x1="299.12" y1="172.04" x2="1.31" y2="172.04"/>
      <line id="Line_30" data-name="Line 30" class="cls-4" x1="300.07" y1="216.64" x2="2.25" y2="216.64"/>
      <line id="Line_31" data-name="Line 31" class="cls-4" x1="299.12" y1="239.31" x2="1.31" y2="239.31"/>
      <line id="Line_32" data-name="Line 32" class="cls-4" x1="300.07" y1="261.99" x2="2.25" y2="261.99"/>
      <line id="Line_33" data-name="Line 33" class="cls-4" x1="299.12" y1="284.67" x2="1.31" y2="284.67"/>
      <line id="Line_34" data-name="Line 34" class="cls-4" x1="300.07" y1="307.34" x2="2.25" y2="307.34"/>
      <line id="Line_35" data-name="Line 35" class="cls-4" x1="300.07" y1="330.02" x2="2.25" y2="330.02"/>
      <line id="Line_36" data-name="Line 36" class="cls-4" x1="299.12" y1="194.72" x2="1.31" y2="194.72"/>
      <line id="Line_37" data-name="Line 37" class="cls-4" x1="300.07" y1="352.69" x2="2.25" y2="352.69"/>
      <line id="Line_38" data-name="Line 38" class="cls-4" x1="299.12" y1="400.31" x2="1.31" y2="400.31"/>
      <line id="Line_39" data-name="Line 39" class="cls-4" x1="299.12" y1="423.75" x2="1.31" y2="423.75"/>
      <line id="Line_40" data-name="Line 40" class="cls-4" x1="300.07" y1="444.16" x2="2.25" y2="444.16"/>
      <line id="Line_41" data-name="Line 41" class="cls-4" x1="299.12" y1="466.83" x2="1.31" y2="466.83"/>
      <path id="Path_7" data-name="Path 7" class="cls-2" d="m300.33,490.32H2.98"/>
      <line id="Line_43" data-name="Line 43" class="cls-4" x1="300.07" y1="514.45" x2="2.25" y2="514.45"/>
      <line id="Line_44" data-name="Line 44" class="cls-4" x1="299.12" y1="376.88" x2="1.31" y2="376.88"/>
    </g>
    <g id="Group_45" data-name="Group 45">
      <g id="Group_39" data-name="Group 39">
        <line id="Line_45" data-name="Line 45" class="cls-4" x1="291.19" y1="539.4" x2="291.19" y2="1.97"/>
        <line id="Line_46" data-name="Line 46" class="cls-4" x1="283.63" y1="527.3" x2="283.63" y2="1.97"/>
        <line id="Line_47" data-name="Line 47" class="cls-4" x1="276.07" y1="523.52" x2="276.07" y2="1.97"/>
        <line id="Line_48" data-name="Line 48" class="cls-4" x1="268.51" y1="522.77" x2="268.51" y2="1.59"/>
        <line id="Line_49" data-name="Line 49" class="cls-4" x1="260.95" y1="525.79" x2="260.95" y2="1.97"/>
        <line id="Line_50" data-name="Line 50" class="cls-4" x1="253.39" y1="539.4" x2="253.39" y2="1.97"/>
        <line id="Line_51" data-name="Line 51" class="cls-4" x1="245.83" y1="539.77" x2="245.83" y2="2.35"/>
      </g>
      <g id="Group_40" data-name="Group 40">
        <line id="Line_45-2" data-name="Line 45-2" class="cls-4" x1="238.27" y1="530.32" x2="238.27" y2="1.97"/>
        <line id="Line_46-2" data-name="Line 46-2" class="cls-4" x1="230.72" y1="523.52" x2="230.72" y2="1.97"/>
        <line id="Line_47-2" data-name="Line 47-2" class="cls-4" x1="223.16" y1="522.77" x2="223.16" y2="1.21"/>
        <line id="Line_48-2" data-name="Line 48-2" class="cls-4" x1="215.6" y1="524.28" x2="215.6" y2="1.59"/>
        <line id="Line_49-2" data-name="Line 49-2" class="cls-4" x1="208.04" y1="531.08" x2="208.04" y2="1.97"/>
        <line id="Line_50-2" data-name="Line 50-2" class="cls-4" x1="200.48" y1="539.4" x2="200.48" y2="1.97"/>
        <line id="Line_51-2" data-name="Line 51-2" class="cls-4" x1="192.92" y1="539.4" x2="192.92" y2="2.35"/>
      </g>
      <g id="Group_41" data-name="Group 41">
        <line id="Line_45-3" data-name="Line 45-3" class="cls-4" x1="192.92" y1="530.7" x2="192.92" y2="2.35"/>
        <line id="Line_46-3" data-name="Line 46-3" class="cls-4" x1="185.36" y1="526.55" x2="185.36" y2="2.35"/>
        <line id="Line_47-3" data-name="Line 47-3" class="cls-4" x1="177.8" y1="522.77" x2="177.8" y2="1.59"/>
        <line id="Line_48-3" data-name="Line 48-3" class="cls-4" x1="170.25" y1="523.52" x2="170.25" y2="1.97"/>
        <line id="Line_49-3" data-name="Line 49-3" class="cls-4" x1="162.69" y1="528.06" x2="162.69" y2="2.35"/>
        <line id="Line_50-3" data-name="Line 50-3" class="cls-4" x1="155.13" y1="539.4" x2="155.13" y2="2.35"/>
        <line id="Line_51-3" data-name="Line 51-3" class="cls-4" x1="147.57" y1="539.4" x2="147.57" y2="2.72"/>
      </g>
      <g id="Group_42" data-name="Group 42">
        <line id="Line_45-4" data-name="Line 45-4" class="cls-4" x1="140.01" y1="529.57" x2="140.01" y2="1.97"/>
        <path id="Path_8" data-name="Path 8" class="cls-2" d="m132.45,523.42V.27"/>
        <line id="Line_47-4" data-name="Line 47-4" class="cls-4" x1="124.89" y1="522.77" x2="124.89" y2="1.21"/>
        <line id="Line_48-4" data-name="Line 48-4" class="cls-4" x1="117.33" y1="525.03" x2="117.33" y2="1.59"/>
        <line id="Line_49-4" data-name="Line 49-4" class="cls-4" x1="109.78" y1="534.1" x2="109.78" y2="1.97"/>
        <line id="Line_50-4" data-name="Line 50-4" class="cls-4" x1="102.22" y1="539.02" x2="102.22" y2="1.97"/>
        <line id="Line_51-4" data-name="Line 51-4" class="cls-4" x1="94.66" y1="534.1" x2="94.66" y2="2.35"/>
      </g>
      <g id="Group_43" data-name="Group 43">
        <line id="Line_45-5" data-name="Line 45-5" class="cls-4" x1="87.1" y1="525.03" x2="87.1" y2="2.35"/>
        <path id="Path_8-2" data-name="Path 8-2" class="cls-2" d="m79.54,523.14V0"/>
        <line id="Line_47-5" data-name="Line 47-5" class="cls-4" x1="71.98" y1="523.52" x2="71.98" y2="1.59"/>
        <line id="Line_48-5" data-name="Line 48-5" class="cls-4" x1="64.42" y1="528.81" x2="64.42" y2="1.97"/>
        <line id="Line_49-5" data-name="Line 49-5" class="cls-4" x1="56.86" y1="539.4" x2="56.86" y2="2.35"/>
        <line id="Line_50-5" data-name="Line 50-5" class="cls-4" x1="49.31" y1="539.4" x2="49.31" y2="2.35"/>
        <line id="Line_51-5" data-name="Line 51-5" class="cls-4" x1="41.75" y1="527.3" x2="41.75" y2="2.72"/>
      </g>
      <g id="Group_44" data-name="Group 44">
        <line id="Line_45-6" data-name="Line 45-6" class="cls-4" x1="34.19" y1="523.52" x2="34.19" y2="2.35"/>
        <path id="Path_8-3" data-name="Path 8-3" class="cls-2" d="m26.63,522.73V0"/>
        <line id="Line_47-6" data-name="Line 47-6" class="cls-4" x1="19.07" y1="526.55" x2="19.07" y2="1.59"/>
        <line id="Line_48-6" data-name="Line 48-6" class="cls-4" x1="11.51" y1="539.4" x2="11.51" y2="1.97"/>
      </g>
    </g>
  </g>
</svg>