<?xml version="1.0" encoding="UTF-8"?>
<svg id="Layer_1" data-name="Layer 1" xmlns="http://www.w3.org/2000/svg" width="595.3" height="348.1" viewBox="0 0 595.3 348.1">
  <defs>
    <style>
      .cls-1 {
        letter-spacing: -.02em;
      }

      .cls-2 {
        font-size: 50px;
      }

      .cls-2, .cls-3, .cls-4 {
        isolation: isolate;
      }

      .cls-2, .cls-4 {
        font-family: EurostileRegular, Eurostile;
      }

      .cls-5, .cls-6, .cls-7 {
        fill: #f4f2ea;
      }

      .cls-3 {
        font-family: Horizontale-Regular, Horizontale;
        font-size: 100px;
      }

      .cls-6, .cls-8, .cls-7 {
        stroke: #ebe7e7;
      }

      .cls-8 {
        fill: none;
      }

      .cls-7 {
        stroke-linecap: round;
        stroke-linejoin: round;
        stroke-width: 3px;
      }

      .cls-9 {
        letter-spacing: 0em;
      }

      .cls-4 {
        font-size: 20px;
      }
    </style>
  </defs>
  <g id="Layer_1-2" data-name="Layer 1">
    <g id="Group_51" data-name="Group 51">
      <path id="Subtraction_1-2" data-name="Subtraction 1-2" class="cls-5" d="m567.1,316.5H28.9V17.9h538.2v11.3c-4.4.1-8.7,1.9-11.7,5.1-3.1,3.2-4.9,7.5-4.8,11.9,0,4.5,1.7,8.7,4.8,11.9s7.3,5,11.7,5.1v14.4c-4.4.1-8.7,1.9-11.7,5.1-3.1,3.2-4.9,7.4-4.8,11.9,0,4.4,1.7,8.7,4.8,11.9,3.1,3.2,7.3,5,11.7,5.1v14.4c-4.4.1-8.7,1.9-11.7,5.1-3.1,3.2-4.9,7.4-4.8,11.9,0,4.4,1.7,8.7,4.8,11.9s7.3,5,11.7,5.1v14.4c-4.4.1-8.7,1.9-11.7,5.1-3.1,3.2-4.9,7.4-4.8,11.9,0,4.4,1.7,8.7,4.8,11.9s7.3,5,11.7,5.1v14.4c-4.4.1-8.7,1.9-11.7,5.1-3.1,3.2-4.9,7.4-4.8,11.9,0,4.4,1.7,8.7,4.8,11.9s7.3,5,11.7,5.1v14.4c-4.4.1-8.7,1.9-11.7,5.1-3.1,3.2-4.9,7.5-4.8,11.9,0,4.5,1.7,8.7,4.8,11.9,3.1,3.2,7.3,5,11.7,5.1v11.3h0Z"/>
      <path id="Subtraction_1-3" data-name="Subtraction 1-3" class="cls-5" d="m567.1,316.5H28.9V17.9h538.2v11.3c-4.4.1-8.7,1.9-11.7,5.1-3.1,3.2-4.9,7.5-4.8,11.9,0,4.5,1.7,8.7,4.8,11.9s7.3,5,11.7,5.1v14.4c-4.4.1-8.7,1.9-11.7,5.1-3.1,3.2-4.9,7.4-4.8,11.9,0,4.4,1.7,8.7,4.8,11.9,3.1,3.2,7.3,5,11.7,5.1v14.4c-4.4.1-8.7,1.9-11.7,5.1-3.1,3.2-4.9,7.4-4.8,11.9,0,4.4,1.7,8.7,4.8,11.9s7.3,5,11.7,5.1v14.4c-4.4.1-8.7,1.9-11.7,5.1-3.1,3.2-4.9,7.4-4.8,11.9,0,4.4,1.7,8.7,4.8,11.9s7.3,5,11.7,5.1v14.4c-4.4.1-8.7,1.9-11.7,5.1-3.1,3.2-4.9,7.4-4.8,11.9,0,4.4,1.7,8.7,4.8,11.9s7.3,5,11.7,5.1v14.4c-4.4.1-8.7,1.9-11.7,5.1-3.1,3.2-4.9,7.5-4.8,11.9,0,4.5,1.7,8.7,4.8,11.9,3.1,3.2,7.3,5,11.7,5.1v11.3h0Z"/>
      <path id="Subtraction_1-4" data-name="Subtraction 1-4" class="cls-7" d="m567.1,316.5H28.9V17.9h538.2v11.3c-4.4.1-8.7,1.9-11.7,5.1-3.1,3.2-4.9,7.5-4.8,11.9,0,4.5,1.7,8.7,4.8,11.9s7.3,5,11.7,5.1v14.4c-4.4.1-8.7,1.9-11.7,5.1-3.1,3.2-4.9,7.4-4.8,11.9,0,4.4,1.7,8.7,4.8,11.9,3.1,3.2,7.3,5,11.7,5.1v14.4c-4.4.1-8.7,1.9-11.7,5.1-3.1,3.2-4.9,7.4-4.8,11.9,0,4.4,1.7,8.7,4.8,11.9s7.3,5,11.7,5.1v14.4c-4.4.1-8.7,1.9-11.7,5.1-3.1,3.2-4.9,7.4-4.8,11.9,0,4.4,1.7,8.7,4.8,11.9s7.3,5,11.7,5.1v14.4c-4.4.1-8.7,1.9-11.7,5.1-3.1,3.2-4.9,7.4-4.8,11.9,0,4.4,1.7,8.7,4.8,11.9s7.3,5,11.7,5.1v14.4c-4.4.1-8.7,1.9-11.7,5.1-3.1,3.2-4.9,7.5-4.8,11.9,0,4.5,1.7,8.7,4.8,11.9,3.1,3.2,7.3,5,11.7,5.1v11.3h0Z"/>
      <g id="Group_37" data-name="Group 37">
        <g id="Group_33" data-name="Group 33">
          <line id="Line_15" data-name="Line 15" class="cls-8" x1="75.4" y1="18.5" x2="75.4" y2="316.6"/>
          <line id="Line_21" data-name="Line 21" class="cls-8" x1="143.4" y1="18.5" x2="143.4" y2="316.6"/>
          <line id="Line_11" data-name="Line 11" class="cls-8" x1="52.7" y1="18.5" x2="52.7" y2="316.6"/>
          <line id="Line_17" data-name="Line 17" class="cls-8" x1="120.8" y1="18.5" x2="120.8" y2="316.6"/>
          <line id="Line_13" data-name="Line 13" class="cls-8" x1="98.1" y1="18.5" x2="98.1" y2="316.6"/>
          <line id="Line_19" data-name="Line 19" class="cls-8" x1="166.1" y1="18.5" x2="166.1" y2="316.6"/>
        </g>
        <g id="Group_34" data-name="Group 34">
          <line id="Line_15-2" data-name="Line 15-2" class="cls-8" x1="211.5" y1="18.5" x2="211.5" y2="316.6"/>
          <line id="Line_21-2" data-name="Line 21-2" class="cls-8" x1="279.5" y1="18.5" x2="279.5" y2="316.6"/>
          <line id="Line_11-2" data-name="Line 11-2" class="cls-8" x1="188.8" y1="18.5" x2="188.8" y2="316.6"/>
          <line id="Line_17-2" data-name="Line 17-2" class="cls-8" x1="256.8" y1="18.5" x2="256.8" y2="316.6"/>
          <line id="Line_13-2" data-name="Line 13-2" class="cls-8" x1="234.1" y1="18.5" x2="234.1" y2="316.6"/>
          <line id="Line_19-2" data-name="Line 19-2" class="cls-8" x1="302.2" y1="18.5" x2="302.2" y2="316.6"/>
        </g>
        <g id="Group_35" data-name="Group 35">
          <line id="Line_15-3" data-name="Line 15-3" class="cls-8" x1="347.5" y1="18.5" x2="347.5" y2="316.6"/>
          <line id="Line_21-3" data-name="Line 21-3" class="cls-8" x1="415.6" y1="18.5" x2="415.6" y2="316.6"/>
          <line id="Line_11-3" data-name="Line 11-3" class="cls-8" x1="324.9" y1="18.5" x2="324.9" y2="316.6"/>
          <line id="Line_17-3" data-name="Line 17-3" class="cls-8" x1="392.9" y1="18.5" x2="392.9" y2="316.6"/>
          <line id="Line_13-3" data-name="Line 13-3" class="cls-8" x1="370.2" y1="18.5" x2="370.2" y2="316.6"/>
          <line id="Line_19-3" data-name="Line 19-3" class="cls-8" x1="438.2" y1="18.5" x2="438.2" y2="316.6"/>
        </g>
        <g id="Group_36" data-name="Group 36">
          <line id="Line_15-4" data-name="Line 15-4" class="cls-8" x1="483.6" y1="18.5" x2="483.6" y2="316.6"/>
          <line id="Line_11-4" data-name="Line 11-4" class="cls-8" x1="460.9" y1="18.5" x2="460.9" y2="316.6"/>
          <line id="Line_17-4" data-name="Line 17-4" class="cls-8" x1="528.9" y1="18.5" x2="528.9" y2="316.6"/>
          <path id="Path_6" data-name="Path 6" class="cls-6" d="m506.3,18.5v298.2"/>
        </g>
      </g>
      <g id="Group_38" data-name="Group 38">
        <line id="Line_22" data-name="Line 22" class="cls-8" x1="64.1" y1="18.5" x2="64.1" y2="316.4"/>
        <line id="Line_23" data-name="Line 23" class="cls-8" x1="86.8" y1="18.8" x2="86.8" y2="316.6"/>
        <line id="Line_24" data-name="Line 24" class="cls-8" x1="109.4" y1="18.8" x2="109.4" y2="316.6"/>
        <line id="Line_25" data-name="Line 25" class="cls-8" x1="132.1" y1="18.8" x2="132.1" y2="316.6"/>
        <line id="Line_26" data-name="Line 26" class="cls-8" x1="154.8" y1="18.8" x2="154.8" y2="316.6"/>
        <line id="Line_27" data-name="Line 27" class="cls-8" x1="177.5" y1="18.8" x2="177.5" y2="316.6"/>
        <line id="Line_28" data-name="Line 28" class="cls-8" x1="42.2" y1="18.8" x2="42.2" y2="316.6"/>
        <line id="Line_29" data-name="Line 29" class="cls-8" x1="199.4" y1="18.8" x2="199.4" y2="316.6"/>
        <line id="Line_30" data-name="Line 30" class="cls-8" x1="244" y1="17.9" x2="244" y2="315.7"/>
        <line id="Line_31" data-name="Line 31" class="cls-8" x1="266.6" y1="18.8" x2="266.6" y2="316.6"/>
        <line id="Line_32" data-name="Line 32" class="cls-8" x1="289.3" y1="17.9" x2="289.3" y2="315.7"/>
        <line id="Line_33" data-name="Line 33" class="cls-8" x1="312" y1="18.8" x2="312" y2="316.6"/>
        <line id="Line_34" data-name="Line 34" class="cls-8" x1="334.7" y1="17.9" x2="334.7" y2="315.7"/>
        <line id="Line_35" data-name="Line 35" class="cls-8" x1="357.4" y1="17.9" x2="357.4" y2="315.7"/>
        <line id="Line_36" data-name="Line 36" class="cls-8" x1="222.1" y1="18.8" x2="222.1" y2="316.6"/>
        <line id="Line_37" data-name="Line 37" class="cls-8" x1="380" y1="17.9" x2="380" y2="315.7"/>
        <line id="Line_38" data-name="Line 38" class="cls-8" x1="427.6" y1="18.8" x2="427.6" y2="316.6"/>
        <line id="Line_39" data-name="Line 39" class="cls-8" x1="451.1" y1="18.8" x2="451.1" y2="316.6"/>
        <line id="Line_40" data-name="Line 40" class="cls-8" x1="471.5" y1="17.9" x2="471.5" y2="315.7"/>
        <line id="Line_41" data-name="Line 41" class="cls-8" x1="494.2" y1="18.8" x2="494.2" y2="316.6"/>
        <path id="Path_7" data-name="Path 7" class="cls-6" d="m517.7,17.6v297.4"/>
        <line id="Line_43" data-name="Line 43" class="cls-8" x1="541.8" y1="17.9" x2="541.8" y2="315.7"/>
        <line id="Line_44" data-name="Line 44" class="cls-8" x1="404.2" y1="18.8" x2="404.2" y2="316.6"/>
      </g>
      <g id="Group_45" data-name="Group 45">
        <g id="Group_39" data-name="Group 39">
          <line id="Line_45" data-name="Line 45" class="cls-8" x1="566.7" y1="26.8" x2="29.3" y2="26.8"/>
          <line id="Line_46" data-name="Line 46" class="cls-8" x1="554.6" y1="34.3" x2="29.3" y2="34.3"/>
          <line id="Line_47" data-name="Line 47" class="cls-8" x1="550.9" y1="41.9" x2="29.3" y2="41.9"/>
          <line id="Line_48" data-name="Line 48" class="cls-8" x1="550.1" y1="49.4" x2="28.9" y2="49.4"/>
          <line id="Line_49" data-name="Line 49" class="cls-8" x1="553.1" y1="57" x2="29.3" y2="57"/>
          <line id="Line_50" data-name="Line 50" class="cls-8" x1="566.7" y1="64.6" x2="29.3" y2="64.6"/>
          <line id="Line_51" data-name="Line 51" class="cls-8" x1="567.1" y1="72.1" x2="29.7" y2="72.1"/>
        </g>
        <g id="Group_40" data-name="Group 40">
          <line id="Line_45-2" data-name="Line 45-2" class="cls-8" x1="557.7" y1="79.7" x2="29.3" y2="79.7"/>
          <line id="Line_46-2" data-name="Line 46-2" class="cls-8" x1="550.9" y1="87.2" x2="29.3" y2="87.2"/>
          <line id="Line_47-2" data-name="Line 47-2" class="cls-8" x1="550.1" y1="94.8" x2="28.5" y2="94.8"/>
          <line id="Line_48-2" data-name="Line 48-2" class="cls-8" x1="551.6" y1="102.3" x2="28.9" y2="102.3"/>
          <line id="Line_49-2" data-name="Line 49-2" class="cls-8" x1="558.4" y1="109.9" x2="29.3" y2="109.9"/>
          <line id="Line_50-2" data-name="Line 50-2" class="cls-8" x1="566.7" y1="117.5" x2="29.3" y2="117.5"/>
          <line id="Line_51-2" data-name="Line 51-2" class="cls-8" x1="566.7" y1="125" x2="29.7" y2="125"/>
        </g>
        <g id="Group_41" data-name="Group 41">
          <line id="Line_45-3" data-name="Line 45-3" class="cls-8" x1="558" y1="125" x2="29.7" y2="125"/>
          <line id="Line_46-3" data-name="Line 46-3" class="cls-8" x1="553.9" y1="132.6" x2="29.7" y2="132.6"/>
          <line id="Line_47-3" data-name="Line 47-3" class="cls-8" x1="550.1" y1="140.1" x2="28.9" y2="140.1"/>
          <line id="Line_48-3" data-name="Line 48-3" class="cls-8" x1="550.9" y1="147.7" x2="29.3" y2="147.7"/>
          <line id="Line_49-3" data-name="Line 49-3" class="cls-8" x1="555.4" y1="155.3" x2="29.7" y2="155.3"/>
          <line id="Line_50-3" data-name="Line 50-3" class="cls-8" x1="566.7" y1="162.8" x2="29.7" y2="162.8"/>
          <line id="Line_51-3" data-name="Line 51-3" class="cls-8" x1="566.7" y1="170.4" x2="30.1" y2="170.4"/>
        </g>
        <g id="Group_42" data-name="Group 42">
          <line id="Line_45-4" data-name="Line 45-4" class="cls-8" x1="556.9" y1="177.9" x2="29.3" y2="177.9"/>
          <path id="Path_8" data-name="Path 8" class="cls-6" d="m550.8,185.5H27.6"/>
          <line id="Line_47-4" data-name="Line 47-4" class="cls-8" x1="550.1" y1="193.1" x2="28.5" y2="193.1"/>
          <line id="Line_48-4" data-name="Line 48-4" class="cls-8" x1="552.4" y1="200.6" x2="28.9" y2="200.6"/>
          <line id="Line_49-4" data-name="Line 49-4" class="cls-8" x1="561.4" y1="208.2" x2="29.3" y2="208.2"/>
          <line id="Line_50-4" data-name="Line 50-4" class="cls-8" x1="566.4" y1="215.7" x2="29.3" y2="215.7"/>
          <line id="Line_51-4" data-name="Line 51-4" class="cls-8" x1="561.4" y1="223.3" x2="29.7" y2="223.3"/>
        </g>
        <g id="Group_43" data-name="Group 43">
          <line id="Line_45-5" data-name="Line 45-5" class="cls-8" x1="552.4" y1="230.9" x2="29.7" y2="230.9"/>
          <path id="Path_8-2" data-name="Path 8-2" class="cls-6" d="m550.5,238.4H27.3"/>
          <line id="Line_47-5" data-name="Line 47-5" class="cls-8" x1="550.9" y1="246" x2="28.9" y2="246"/>
          <line id="Line_48-5" data-name="Line 48-5" class="cls-8" x1="556.2" y1="253.5" x2="29.3" y2="253.5"/>
          <line id="Line_49-5" data-name="Line 49-5" class="cls-8" x1="566.7" y1="261.1" x2="29.7" y2="261.1"/>
          <line id="Line_50-5" data-name="Line 50-5" class="cls-8" x1="566.7" y1="268.6" x2="29.7" y2="268.6"/>
          <line id="Line_51-5" data-name="Line 51-5" class="cls-8" x1="554.6" y1="276.2" x2="30.1" y2="276.2"/>
        </g>
        <g id="Group_44" data-name="Group 44">
          <line id="Line_45-6" data-name="Line 45-6" class="cls-8" x1="550.9" y1="283.8" x2="29.7" y2="283.8"/>
          <path id="Path_8-3" data-name="Path 8-3" class="cls-6" d="m550.1,291.3H27.3"/>
          <line id="Line_47-6" data-name="Line 47-6" class="cls-8" x1="553.9" y1="298.9" x2="28.9" y2="298.9"/>
          <line id="Line_48-6" data-name="Line 48-6" class="cls-8" x1="566.7" y1="306.4" x2="29.3" y2="306.4"/>
        </g>
      </g>
    </g>
  </g>
  <g id="Layer_2" data-name="Layer 2">
    <text class="cls-3" transform="translate(53.63 281.29)"><tspan class="cls-1" x="0" y="0">V</tspan><tspan class="cls-9" x="106" y="0">IP</tspan></text>
    <text class="cls-2" transform="translate(46.57 193.01)"><tspan x="0" y="0">1299,-</tspan></text>
    <text class="cls-4" transform="translate(61.44 48.79)"><tspan x="0" y="0">FOO FESTIVAL</tspan></text>
    <text class="cls-4" transform="translate(276.78 48.79)"><tspan x="0" y="0">AUGUST</tspan></text>
    <text class="cls-4" transform="translate(483.35 48.79)"><tspan x="0" y="0">2023</tspan></text>
  </g>
</svg>