<?xml version="1.0" encoding="UTF-8"?>
<svg id="Layer_1" data-name="Layer 1" xmlns="http://www.w3.org/2000/svg" width="595.3" height="348.1" viewBox="0 0 595.3 348.1">
  <defs>
    <style>
      .cls-1, .cls-2, .cls-3 {
        fill: #f4f2ea;
      }

      .cls-2, .cls-4, .cls-3 {
        stroke: #ebe7e7;
      }

      .cls-5 {
        isolation: isolate;
      }

      .cls-4 {
        fill: none;
      }

      .cls-3 {
        stroke-linecap: round;
        stroke-linejoin: round;
        stroke-width: 3px;
      }
    </style>
  </defs>
  <g id="Layer_1-2" data-name="Layer 1">
    <g id="Group_51" data-name="Group 51">
      <path id="Subtraction_1-2" data-name="Subtraction 1-2" class="cls-1" d="m567.1,316.5H28.9V17.9h538.2v11.3c-4.4.1-8.7,1.9-11.7,5.1-3.1,3.2-4.9,7.5-4.8,11.9,0,4.5,1.7,8.7,4.8,11.9s7.3,5,11.7,5.1v14.4c-4.4.1-8.7,1.9-11.7,5.1-3.1,3.2-4.9,7.4-4.8,11.9,0,4.4,1.7,8.7,4.8,11.9,3.1,3.2,7.3,5,11.7,5.1v14.4c-4.4.1-8.7,1.9-11.7,5.1-3.1,3.2-4.9,7.4-4.8,11.9,0,4.4,1.7,8.7,4.8,11.9s7.3,5,11.7,5.1v14.4c-4.4.1-8.7,1.9-11.7,5.1-3.1,3.2-4.9,7.4-4.8,11.9,0,4.4,1.7,8.7,4.8,11.9s7.3,5,11.7,5.1v14.4c-4.4.1-8.7,1.9-11.7,5.1-3.1,3.2-4.9,7.4-4.8,11.9,0,4.4,1.7,8.7,4.8,11.9s7.3,5,11.7,5.1v14.4c-4.4.1-8.7,1.9-11.7,5.1-3.1,3.2-4.9,7.5-4.8,11.9,0,4.5,1.7,8.7,4.8,11.9,3.1,3.2,7.3,5,11.7,5.1v11.3h0Z"/>
      <path id="Subtraction_1-3" data-name="Subtraction 1-3" class="cls-1" d="m567.1,316.5H28.9V17.9h538.2v11.3c-4.4.1-8.7,1.9-11.7,5.1-3.1,3.2-4.9,7.5-4.8,11.9,0,4.5,1.7,8.7,4.8,11.9s7.3,5,11.7,5.1v14.4c-4.4.1-8.7,1.9-11.7,5.1-3.1,3.2-4.9,7.4-4.8,11.9,0,4.4,1.7,8.7,4.8,11.9,3.1,3.2,7.3,5,11.7,5.1v14.4c-4.4.1-8.7,1.9-11.7,5.1-3.1,3.2-4.9,7.4-4.8,11.9,0,4.4,1.7,8.7,4.8,11.9s7.3,5,11.7,5.1v14.4c-4.4.1-8.7,1.9-11.7,5.1-3.1,3.2-4.9,7.4-4.8,11.9,0,4.4,1.7,8.7,4.8,11.9s7.3,5,11.7,5.1v14.4c-4.4.1-8.7,1.9-11.7,5.1-3.1,3.2-4.9,7.4-4.8,11.9,0,4.4,1.7,8.7,4.8,11.9s7.3,5,11.7,5.1v14.4c-4.4.1-8.7,1.9-11.7,5.1-3.1,3.2-4.9,7.5-4.8,11.9,0,4.5,1.7,8.7,4.8,11.9,3.1,3.2,7.3,5,11.7,5.1v11.3h0Z"/>
      <path id="Subtraction_1-4" data-name="Subtraction 1-4" class="cls-3" d="m567.1,316.5H28.9V17.9h538.2v11.3c-4.4.1-8.7,1.9-11.7,5.1-3.1,3.2-4.9,7.5-4.8,11.9,0,4.5,1.7,8.7,4.8,11.9s7.3,5,11.7,5.1v14.4c-4.4.1-8.7,1.9-11.7,5.1-3.1,3.2-4.9,7.4-4.8,11.9,0,4.4,1.7,8.7,4.8,11.9,3.1,3.2,7.3,5,11.7,5.1v14.4c-4.4.1-8.7,1.9-11.7,5.1-3.1,3.2-4.9,7.4-4.8,11.9,0,4.4,1.7,8.7,4.8,11.9s7.3,5,11.7,5.1v14.4c-4.4.1-8.7,1.9-11.7,5.1-3.1,3.2-4.9,7.4-4.8,11.9,0,4.4,1.7,8.7,4.8,11.9s7.3,5,11.7,5.1v14.4c-4.4.1-8.7,1.9-11.7,5.1-3.1,3.2-4.9,7.4-4.8,11.9,0,4.4,1.7,8.7,4.8,11.9s7.3,5,11.7,5.1v14.4c-4.4.1-8.7,1.9-11.7,5.1-3.1,3.2-4.9,7.5-4.8,11.9,0,4.5,1.7,8.7,4.8,11.9,3.1,3.2,7.3,5,11.7,5.1v11.3h0Z"/>
      <g id="Group_37" data-name="Group 37">
        <g id="Group_33" data-name="Group 33">
          <line id="Line_15" data-name="Line 15" class="cls-4" x1="75.4" y1="18.5" x2="75.4" y2="316.6"/>
          <line id="Line_21" data-name="Line 21" class="cls-4" x1="143.4" y1="18.5" x2="143.4" y2="316.6"/>
          <line id="Line_11" data-name="Line 11" class="cls-4" x1="52.7" y1="18.5" x2="52.7" y2="316.6"/>
          <line id="Line_17" data-name="Line 17" class="cls-4" x1="120.8" y1="18.5" x2="120.8" y2="316.6"/>
          <line id="Line_13" data-name="Line 13" class="cls-4" x1="98.1" y1="18.5" x2="98.1" y2="316.6"/>
          <line id="Line_19" data-name="Line 19" class="cls-4" x1="166.1" y1="18.5" x2="166.1" y2="316.6"/>
        </g>
        <g id="Group_34" data-name="Group 34">
          <line id="Line_15-2" data-name="Line 15-2" class="cls-4" x1="211.5" y1="18.5" x2="211.5" y2="316.6"/>
          <line id="Line_21-2" data-name="Line 21-2" class="cls-4" x1="279.5" y1="18.5" x2="279.5" y2="316.6"/>
          <line id="Line_11-2" data-name="Line 11-2" class="cls-4" x1="188.8" y1="18.5" x2="188.8" y2="316.6"/>
          <line id="Line_17-2" data-name="Line 17-2" class="cls-4" x1="256.8" y1="18.5" x2="256.8" y2="316.6"/>
          <line id="Line_13-2" data-name="Line 13-2" class="cls-4" x1="234.1" y1="18.5" x2="234.1" y2="316.6"/>
          <line id="Line_19-2" data-name="Line 19-2" class="cls-4" x1="302.2" y1="18.5" x2="302.2" y2="316.6"/>
        </g>
        <g id="Group_35" data-name="Group 35">
          <line id="Line_15-3" data-name="Line 15-3" class="cls-4" x1="347.5" y1="18.5" x2="347.5" y2="316.6"/>
          <line id="Line_21-3" data-name="Line 21-3" class="cls-4" x1="415.6" y1="18.5" x2="415.6" y2="316.6"/>
          <line id="Line_11-3" data-name="Line 11-3" class="cls-4" x1="324.9" y1="18.5" x2="324.9" y2="316.6"/>
          <line id="Line_17-3" data-name="Line 17-3" class="cls-4" x1="392.9" y1="18.5" x2="392.9" y2="316.6"/>
          <line id="Line_13-3" data-name="Line 13-3" class="cls-4" x1="370.2" y1="18.5" x2="370.2" y2="316.6"/>
          <line id="Line_19-3" data-name="Line 19-3" class="cls-4" x1="438.2" y1="18.5" x2="438.2" y2="316.6"/>
        </g>
        <g id="Group_36" data-name="Group 36">
          <line id="Line_15-4" data-name="Line 15-4" class="cls-4" x1="483.6" y1="18.5" x2="483.6" y2="316.6"/>
          <line id="Line_11-4" data-name="Line 11-4" class="cls-4" x1="460.9" y1="18.5" x2="460.9" y2="316.6"/>
          <line id="Line_17-4" data-name="Line 17-4" class="cls-4" x1="528.9" y1="18.5" x2="528.9" y2="316.6"/>
          <path id="Path_6" data-name="Path 6" class="cls-2" d="m506.3,18.5v298.2"/>
        </g>
      </g>
      <g id="Group_38" data-name="Group 38">
        <line id="Line_22" data-name="Line 22" class="cls-4" x1="64.1" y1="18.5" x2="64.1" y2="316.4"/>
        <line id="Line_23" data-name="Line 23" class="cls-4" x1="86.8" y1="18.8" x2="86.8" y2="316.6"/>
        <line id="Line_24" data-name="Line 24" class="cls-4" x1="109.4" y1="18.8" x2="109.4" y2="316.6"/>
        <line id="Line_25" data-name="Line 25" class="cls-4" x1="132.1" y1="18.8" x2="132.1" y2="316.6"/>
        <line id="Line_26" data-name="Line 26" class="cls-4" x1="154.8" y1="18.8" x2="154.8" y2="316.6"/>
        <line id="Line_27" data-name="Line 27" class="cls-4" x1="177.5" y1="18.8" x2="177.5" y2="316.6"/>
        <line id="Line_28" data-name="Line 28" class="cls-4" x1="42.2" y1="18.8" x2="42.2" y2="316.6"/>
        <line id="Line_29" data-name="Line 29" class="cls-4" x1="199.4" y1="18.8" x2="199.4" y2="316.6"/>
        <line id="Line_30" data-name="Line 30" class="cls-4" x1="244" y1="17.9" x2="244" y2="315.7"/>
        <line id="Line_31" data-name="Line 31" class="cls-4" x1="266.6" y1="18.8" x2="266.6" y2="316.6"/>
        <line id="Line_32" data-name="Line 32" class="cls-4" x1="289.3" y1="17.9" x2="289.3" y2="315.7"/>
        <line id="Line_33" data-name="Line 33" class="cls-4" x1="312" y1="18.8" x2="312" y2="316.6"/>
        <line id="Line_34" data-name="Line 34" class="cls-4" x1="334.7" y1="17.9" x2="334.7" y2="315.7"/>
        <line id="Line_35" data-name="Line 35" class="cls-4" x1="357.4" y1="17.9" x2="357.4" y2="315.7"/>
        <line id="Line_36" data-name="Line 36" class="cls-4" x1="222.1" y1="18.8" x2="222.1" y2="316.6"/>
        <line id="Line_37" data-name="Line 37" class="cls-4" x1="380" y1="17.9" x2="380" y2="315.7"/>
        <line id="Line_38" data-name="Line 38" class="cls-4" x1="427.6" y1="18.8" x2="427.6" y2="316.6"/>
        <line id="Line_39" data-name="Line 39" class="cls-4" x1="451.1" y1="18.8" x2="451.1" y2="316.6"/>
        <line id="Line_40" data-name="Line 40" class="cls-4" x1="471.5" y1="17.9" x2="471.5" y2="315.7"/>
        <line id="Line_41" data-name="Line 41" class="cls-4" x1="494.2" y1="18.8" x2="494.2" y2="316.6"/>
        <path id="Path_7" data-name="Path 7" class="cls-2" d="m517.7,17.6v297.4"/>
        <line id="Line_43" data-name="Line 43" class="cls-4" x1="541.8" y1="17.9" x2="541.8" y2="315.7"/>
        <line id="Line_44" data-name="Line 44" class="cls-4" x1="404.2" y1="18.8" x2="404.2" y2="316.6"/>
      </g>
      <g id="Group_45" data-name="Group 45">
        <g id="Group_39" data-name="Group 39">
          <line id="Line_45" data-name="Line 45" class="cls-4" x1="566.7" y1="26.8" x2="29.3" y2="26.8"/>
          <line id="Line_46" data-name="Line 46" class="cls-4" x1="554.6" y1="34.3" x2="29.3" y2="34.3"/>
          <line id="Line_47" data-name="Line 47" class="cls-4" x1="550.9" y1="41.9" x2="29.3" y2="41.9"/>
          <line id="Line_48" data-name="Line 48" class="cls-4" x1="550.1" y1="49.4" x2="28.9" y2="49.4"/>
          <line id="Line_49" data-name="Line 49" class="cls-4" x1="553.1" y1="57" x2="29.3" y2="57"/>
          <line id="Line_50" data-name="Line 50" class="cls-4" x1="566.7" y1="64.6" x2="29.3" y2="64.6"/>
          <line id="Line_51" data-name="Line 51" class="cls-4" x1="567.1" y1="72.1" x2="29.7" y2="72.1"/>
        </g>
        <g id="Group_40" data-name="Group 40">
          <line id="Line_45-2" data-name="Line 45-2" class="cls-4" x1="557.7" y1="79.7" x2="29.3" y2="79.7"/>
          <line id="Line_46-2" data-name="Line 46-2" class="cls-4" x1="550.9" y1="87.2" x2="29.3" y2="87.2"/>
          <line id="Line_47-2" data-name="Line 47-2" class="cls-4" x1="550.1" y1="94.8" x2="28.5" y2="94.8"/>
          <line id="Line_48-2" data-name="Line 48-2" class="cls-4" x1="551.6" y1="102.3" x2="28.9" y2="102.3"/>
          <line id="Line_49-2" data-name="Line 49-2" class="cls-4" x1="558.4" y1="109.9" x2="29.3" y2="109.9"/>
          <line id="Line_50-2" data-name="Line 50-2" class="cls-4" x1="566.7" y1="117.5" x2="29.3" y2="117.5"/>
          <line id="Line_51-2" data-name="Line 51-2" class="cls-4" x1="566.7" y1="125" x2="29.7" y2="125"/>
        </g>
        <g id="Group_41" data-name="Group 41">
          <line id="Line_45-3" data-name="Line 45-3" class="cls-4" x1="558" y1="125" x2="29.7" y2="125"/>
          <line id="Line_46-3" data-name="Line 46-3" class="cls-4" x1="553.9" y1="132.6" x2="29.7" y2="132.6"/>
          <line id="Line_47-3" data-name="Line 47-3" class="cls-4" x1="550.1" y1="140.1" x2="28.9" y2="140.1"/>
          <line id="Line_48-3" data-name="Line 48-3" class="cls-4" x1="550.9" y1="147.7" x2="29.3" y2="147.7"/>
          <line id="Line_49-3" data-name="Line 49-3" class="cls-4" x1="555.4" y1="155.3" x2="29.7" y2="155.3"/>
          <line id="Line_50-3" data-name="Line 50-3" class="cls-4" x1="566.7" y1="162.8" x2="29.7" y2="162.8"/>
          <line id="Line_51-3" data-name="Line 51-3" class="cls-4" x1="566.7" y1="170.4" x2="30.1" y2="170.4"/>
        </g>
        <g id="Group_42" data-name="Group 42">
          <line id="Line_45-4" data-name="Line 45-4" class="cls-4" x1="556.9" y1="177.9" x2="29.3" y2="177.9"/>
          <path id="Path_8" data-name="Path 8" class="cls-2" d="m550.8,185.5H27.6"/>
          <line id="Line_47-4" data-name="Line 47-4" class="cls-4" x1="550.1" y1="193.1" x2="28.5" y2="193.1"/>
          <line id="Line_48-4" data-name="Line 48-4" class="cls-4" x1="552.4" y1="200.6" x2="28.9" y2="200.6"/>
          <line id="Line_49-4" data-name="Line 49-4" class="cls-4" x1="561.4" y1="208.2" x2="29.3" y2="208.2"/>
          <line id="Line_50-4" data-name="Line 50-4" class="cls-4" x1="566.4" y1="215.7" x2="29.3" y2="215.7"/>
          <line id="Line_51-4" data-name="Line 51-4" class="cls-4" x1="561.4" y1="223.3" x2="29.7" y2="223.3"/>
        </g>
        <g id="Group_43" data-name="Group 43">
          <line id="Line_45-5" data-name="Line 45-5" class="cls-4" x1="552.4" y1="230.9" x2="29.7" y2="230.9"/>
          <path id="Path_8-2" data-name="Path 8-2" class="cls-2" d="m550.5,238.4H27.3"/>
          <line id="Line_47-5" data-name="Line 47-5" class="cls-4" x1="550.9" y1="246" x2="28.9" y2="246"/>
          <line id="Line_48-5" data-name="Line 48-5" class="cls-4" x1="556.2" y1="253.5" x2="29.3" y2="253.5"/>
          <line id="Line_49-5" data-name="Line 49-5" class="cls-4" x1="566.7" y1="261.1" x2="29.7" y2="261.1"/>
          <line id="Line_50-5" data-name="Line 50-5" class="cls-4" x1="566.7" y1="268.6" x2="29.7" y2="268.6"/>
          <line id="Line_51-5" data-name="Line 51-5" class="cls-4" x1="554.6" y1="276.2" x2="30.1" y2="276.2"/>
        </g>
        <g id="Group_44" data-name="Group 44">
          <line id="Line_45-6" data-name="Line 45-6" class="cls-4" x1="550.9" y1="283.8" x2="29.7" y2="283.8"/>
          <path id="Path_8-3" data-name="Path 8-3" class="cls-2" d="m550.1,291.3H27.3"/>
          <line id="Line_47-6" data-name="Line 47-6" class="cls-4" x1="553.9" y1="298.9" x2="28.9" y2="298.9"/>
          <line id="Line_48-6" data-name="Line 48-6" class="cls-4" x1="566.7" y1="306.4" x2="29.3" y2="306.4"/>
        </g>
      </g>
    </g>
  </g>
  <g id="Layer_2" data-name="Layer 2">
    <g class="cls-5">
      <path d="m145.63,212.09h16.1l-30.7,69.2h-47.7l-30.7-69.2h42l25.5,57.4,25.5-57.4Z"/>
    </g>
    <g class="cls-5">
      <path d="m166.43,212.09h38.5v69.2h-38.5v-69.2Z"/>
      <path d="m309.43,212.09c2.67,0,5.17.5,7.5,1.5,2.33,1,4.37,2.37,6.1,4.1,1.73,1.73,3.1,3.77,4.1,6.1,1,2.33,1.5,4.83,1.5,7.5s-.5,5.17-1.5,7.5c-1,2.33-2.37,4.37-4.1,6.1s-3.77,3.1-6.1,4.1c-2.33,1-4.83,1.5-7.5,1.5h-50v30.8h-38.4v-69.2h88.4Zm-11.6,30.7c1.6,0,3.1-.3,4.5-.9,1.4-.6,2.63-1.43,3.7-2.49,1.07-1.06,1.9-2.29,2.5-3.68.6-1.39.9-2.89.9-4.48s-.3-3.07-.9-4.43c-.6-1.36-1.43-2.57-2.5-3.63-1.07-1.06-2.3-1.89-3.7-2.49-1.4-.6-2.9-.9-4.5-.9h-38.4v23h38.4Z"/>
    </g>
    <g class="cls-5">
      <path d="m65.78,157.35v33.32h-3.76v-30.52l-8.52,9.45-2.37-2.25,9.23-10.01h5.42Z"/>
      <path d="m103.4,187.5v3.17h-24v-6.27c0-3.52.68-5.82,2.05-6.91,1.37-1.09,4.61-1.93,9.74-2.51,4.1-.46,6.58-1.07,7.43-1.86s1.28-2.81,1.28-6.08c0-2.86-.48-4.72-1.43-5.58-.95-.86-3.03-1.28-6.24-1.28-4,0-6.53.35-7.58,1.04-1.05.69-1.57,2.36-1.57,4.99l.05,2.49h-3.69l.02-1.73c0-3.99.84-6.64,2.53-7.97,1.68-1.33,5.06-1.99,10.12-1.99,4.49,0,7.51.72,9.06,2.15,1.55,1.43,2.32,4.22,2.32,8.37s-.72,6.65-2.16,8c-1.44,1.34-4.57,2.25-9.39,2.72-4.23.42-6.75,1.01-7.57,1.76-.81.75-1.22,2.87-1.22,6.37v1.12h20.24Z"/>
      <path d="m109.89,182.18h3.54l-.02.98c0,2.05.49,3.35,1.46,3.88s3.3.8,6.98.8c4.2,0,6.76-.41,7.69-1.23s1.39-3.1,1.39-6.82v-5h-.07c-1.3,1.99-4.64,2.98-10.01,2.98-4.23,0-7.08-.68-8.54-2.03-1.46-1.35-2.2-3.97-2.2-7.86,0-4.46.77-7.38,2.32-8.78,1.55-1.39,4.79-2.09,9.74-2.09s8.44.72,10.08,2.17c1.64,1.45,2.47,4.42,2.47,8.91l.1,8.96-.07,3.44c0,4.26-.81,7.08-2.42,8.46s-4.92,2.06-9.94,2.06-8.26-.51-9.99-1.53c-1.73-1.02-2.59-2.99-2.59-5.92,0-.26.02-.72.07-1.39Zm11.94-22c-3.63,0-5.89.39-6.79,1.18-.9.79-1.34,2.79-1.34,5.99s.44,5.13,1.32,5.97c.88.84,2.98,1.26,6.3,1.26,4.31,0,6.99-.34,8.03-1.01,1.04-.68,1.56-2.41,1.56-5.19,0-3.73-.48-6.03-1.44-6.9-.96-.87-3.51-1.31-7.64-1.31Z"/>
      <path d="m140.58,182.18h3.54l-.02.98c0,2.05.49,3.35,1.46,3.88s3.3.8,6.98.8c4.2,0,6.76-.41,7.69-1.23s1.39-3.1,1.39-6.82v-5h-.07c-1.3,1.99-4.64,2.98-10.01,2.98-4.23,0-7.08-.68-8.54-2.03-1.46-1.35-2.2-3.97-2.2-7.86,0-4.46.77-7.38,2.32-8.78,1.55-1.39,4.79-2.09,9.74-2.09s8.44.72,10.08,2.17c1.64,1.45,2.47,4.42,2.47,8.91l.1,8.96-.07,3.44c0,4.26-.81,7.08-2.42,8.46s-4.92,2.06-9.94,2.06-8.26-.51-9.99-1.53c-1.73-1.02-2.59-2.99-2.59-5.92,0-.26.02-.72.07-1.39Zm11.94-22c-3.63,0-5.89.39-6.79,1.18-.9.79-1.34,2.79-1.34,5.99s.44,5.13,1.32,5.97c.88.84,2.98,1.26,6.3,1.26,4.31,0,6.99-.34,8.03-1.01,1.04-.68,1.56-2.41,1.56-5.19,0-3.73-.48-6.03-1.44-6.9-.96-.87-3.51-1.31-7.64-1.31Z"/>
      <path d="m175.64,186.19v4.83c0,3.04-1.11,4.57-3.32,4.57-.21,0-.52-.02-.93-.05v-1.86c1.4-.08,2.1-.8,2.1-2.15l-.02-.86h-1.59v-4.49h3.76Z"/>
      <path d="m178.72,176.96h10.3v3.17h-10.38l.07-3.17Z"/>
    </g>
    <g class="cls-5">
      <path d="m64.21,36.73v4.66h6.49v1.27h-6.49v6.13h-1.5v-13.33h8.17v1.27h-6.67Z"/>
      <path d="m77.36,35.32c2.52,0,4.1.37,4.73,1.1s.95,2.58.95,5.52c0,3.17-.3,5.13-.91,5.87s-2.19,1.11-4.77,1.11-4.15-.37-4.76-1.1-.92-2.64-.92-5.7v-.94l.02-1.26c0-1.77.4-2.98,1.2-3.63s2.29-.97,4.47-.97Zm0,1.27c-2.11,0-3.34.23-3.7.7s-.54,2.08-.54,4.82.18,4.37.54,4.83,1.59.7,3.7.7,3.35-.23,3.71-.7.54-2.08.54-4.83v-2.13c0-1.47-.26-2.41-.75-2.8s-1.66-.6-3.5-.6Z"/>
      <path d="m89.62,35.32c2.52,0,4.1.37,4.73,1.1s.95,2.58.95,5.52c0,3.17-.3,5.13-.91,5.87s-2.19,1.11-4.77,1.11-4.15-.37-4.76-1.1-.92-2.64-.92-5.7v-.94l.02-1.26c0-1.77.4-2.98,1.2-3.63s2.29-.97,4.47-.97Zm0,1.27c-2.11,0-3.34.23-3.7.7s-.54,2.08-.54,4.82.18,4.37.54,4.83,1.59.7,3.7.7,3.35-.23,3.71-.7.54-2.08.54-4.83v-2.13c0-1.47-.26-2.41-.75-2.8s-1.66-.6-3.5-.6Z"/>
      <path d="m98.52,36.73v4.66h6.49v1.27h-6.49v6.13h-1.5v-13.33h8.17v1.27h-6.67Z"/>
      <path d="m107.76,36.73v4.54h6.77v1.27h-6.77v4.98h7.06v1.27h-8.56v-13.33h8.56v1.27h-7.06Z"/>
      <path d="m125.89,39.07h-1.49c0-1.07-.18-1.76-.54-2.05s-1.2-.43-2.53-.43c-1.58,0-2.59.14-3.05.42s-.68.89-.68,1.85c0,1.07.18,1.73.54,1.96s1.42.39,3.19.48c2.08.09,3.4.35,3.96.79s.84,1.41.84,2.93c0,1.64-.32,2.7-.97,3.18s-2.08.72-4.29.72c-1.92,0-3.2-.24-3.83-.73s-.95-1.46-.95-2.93v-.6s1.48,0,1.48,0v.33c0,1.19.18,1.93.55,2.22s1.3.43,2.8.43c1.73,0,2.79-.14,3.18-.43s.6-1.06.6-2.32c0-.81-.14-1.36-.41-1.63s-.83-.43-1.69-.48l-1.56-.08-1.48-.08c-2.26-.16-3.39-1.33-3.39-3.52,0-1.52.33-2.53.99-3.04s1.97-.76,3.94-.76,3.29.24,3.9.71.91,1.49.91,3.04Z"/>
      <path d="m132.59,36.86v11.93h-1.5v-11.93h-4.35v-1.4h10.16v1.4h-4.31Z"/>
      <path d="m139.74,35.46v13.33h-1.5v-13.33h1.5Z"/>
      <path d="m150.96,35.46h1.61l-4.72,13.33h-2.15l-4.77-13.33h1.6l3.55,10.07.35,1.03c.13.4.24.74.32,1.03h.04c.2-.66.41-1.33.65-2.03l3.5-10.09Z"/>
      <path d="m161.94,45.97h-6.75l-1.03,2.82h-1.59l4.88-13.33h2.11l4.98,13.33h-1.57l-1.04-2.82Zm-.44-1.13l-2.96-8.14-2.92,8.14h5.88Z"/>
      <path d="m167.42,35.46v11.93h6.86v1.4h-8.36v-13.33h1.5Z"/>
    </g>
    <g class="cls-5">
      <path d="m286.24,45.97h-6.75l-1.03,2.82h-1.59l4.88-13.33h2.11l4.98,13.33h-1.57l-1.04-2.82Zm-.44-1.13l-2.96-8.14-2.92,8.14h5.88Z"/>
      <path d="m299.28,35.46h1.5v9.34c0,1.69-.34,2.8-1.02,3.33-.68.53-2.11.8-4.28.8-2.04,0-3.42-.26-4.16-.77s-1.1-1.48-1.1-2.92v-9.79h1.5v9.34c0,1.26.21,2.06.62,2.38s1.42.48,3.03.48c1.74,0,2.83-.16,3.26-.47s.64-1.11.64-2.39v-9.34Z"/>
      <path d="m308.07,42.16h5.71c.03.34.04.83.04,1.46,0,2.4-.29,3.89-.88,4.46-.59.57-2.13.85-4.61.85-2.35,0-3.86-.34-4.53-1.01-.67-.67-1.01-2.19-1.01-4.54v-1.96s0-1.18,0-1.18c0-1.97.37-3.28,1.12-3.94.75-.65,2.25-.98,4.51-.98s3.73.21,4.38.64c.66.43.99,1.38.99,2.86v.51h-1.47v-.33c0-1.09-.22-1.76-.67-2.02-.45-.26-1.61-.39-3.49-.39-1.74,0-2.83.21-3.26.62-.44.41-.65,1.45-.65,3.1l-.02,1.77v1.9c0,1.68.25,2.71.74,3.1.48.38,1.78.58,3.88.58,1.61,0,2.6-.18,2.98-.55s.57-1.32.57-2.86c0-.12-.03-.4-.08-.82h-4.24v-1.27Z"/>
      <path d="m324.76,35.46h1.5v9.34c0,1.69-.34,2.8-1.02,3.33-.68.53-2.11.8-4.28.8-2.04,0-3.42-.26-4.16-.77s-1.1-1.48-1.1-2.92v-9.79h1.5v9.34c0,1.26.21,2.06.62,2.38s1.42.48,3.03.48c1.74,0,2.83-.16,3.26-.47s.64-1.11.64-2.39v-9.34Z"/>
      <path d="m337.93,39.07h-1.49c0-1.07-.18-1.76-.54-2.05-.36-.29-1.2-.43-2.53-.43-1.58,0-2.59.14-3.05.42-.46.28-.68.89-.68,1.85,0,1.07.18,1.73.54,1.96.36.23,1.42.39,3.19.48,2.08.09,3.4.35,3.96.79.56.44.84,1.41.84,2.93,0,1.64-.32,2.7-.97,3.18-.65.48-2.08.72-4.29.72-1.92,0-3.2-.24-3.83-.73s-.95-1.46-.95-2.93v-.6s1.48,0,1.48,0v.33c0,1.19.18,1.93.55,2.22.36.29,1.3.43,2.8.43,1.72,0,2.79-.14,3.18-.43.4-.29.6-1.06.6-2.32,0-.81-.14-1.36-.41-1.63-.27-.27-.83-.43-1.69-.48l-1.56-.08-1.48-.08c-2.26-.16-3.39-1.33-3.39-3.52,0-1.52.33-2.53.99-3.04.66-.51,1.97-.76,3.94-.76s3.29.24,3.9.71.91,1.49.91,3.04Z"/>
      <path d="m344.63,36.86v11.93h-1.5v-11.93h-4.35v-1.4h10.16v1.4h-4.31Z"/>
    </g>
    <g class="cls-5">
      <path d="m494.03,47.52v1.27h-9.6v-2.51c0-1.41.27-2.33.82-2.76s1.85-.77,3.9-1.01c1.64-.18,2.63-.43,2.97-.74s.51-1.12.51-2.43c0-1.15-.19-1.89-.57-2.23s-1.21-.51-2.5-.51c-1.6,0-2.61.14-3.03.42s-.63.94-.63,2l.02,1h-1.47v-.69c0-1.59.35-2.66,1.02-3.19s2.02-.8,4.05-.8c1.8,0,3,.29,3.62.86.62.57.93,1.69.93,3.35s-.29,2.66-.86,3.2-1.83.9-3.75,1.09c-1.69.17-2.7.4-3.03.7-.33.3-.49,1.15-.49,2.55v.45h8.1Z"/>
      <path d="m501.75,35.32c2.47,0,3.96.33,4.46.99s.76,2.6.76,5.81-.24,4.92-.72,5.57c-.62.83-2.12,1.24-4.5,1.24s-3.88-.41-4.5-1.24c-.48-.65-.72-2.67-.72-6.04,0-2.92.27-4.71.8-5.35.53-.64,2.01-.97,4.42-.97Zm0,1.27c-1.87,0-2.97.24-3.3.72-.33.48-.49,2.08-.49,4.8s.17,4.33.49,4.81c.33.48,1.43.72,3.3.72s2.97-.24,3.3-.72c.33-.48.49-2.09.49-4.81s-.16-4.32-.49-4.8c-.33-.48-1.43-.72-3.3-.72Z"/>
      <path d="m518.56,47.52v1.27h-9.6v-2.51c0-1.41.27-2.33.82-2.76s1.85-.77,3.9-1.01c1.64-.18,2.63-.43,2.97-.74s.51-1.12.51-2.43c0-1.15-.19-1.89-.57-2.23s-1.21-.51-2.5-.51c-1.6,0-2.61.14-3.03.42s-.63.94-.63,2l.02,1h-1.47v-.69c0-1.59.35-2.66,1.02-3.19s2.02-.8,4.05-.8c1.8,0,3,.29,3.62.86.62.57.93,1.69.93,3.35s-.29,2.66-.86,3.2-1.83.9-3.75,1.09c-1.69.17-2.7.4-3.03.7-.33.3-.49,1.15-.49,2.55v.45h8.1Z"/>
      <path d="m525.03,42.61v-1.28h.51c1.8,0,2.9-.1,3.3-.33s.6-.85.6-1.87c0-1.17-.17-1.89-.52-2.15-.35-.26-1.31-.39-2.89-.39-1.45,0-2.35.13-2.69.38s-.51.92-.51,2v.58h-1.43v-.53c0-1.52.31-2.52.9-2.99.59-.47,1.84-.71,3.75-.71s3.25.22,3.88.66c.63.44.94,1.35.94,2.72,0,1.17-.15,1.96-.45,2.39-.3.43-.9.7-1.8.81v.07c1.01.14,1.68.41,2.01.82.33.41.49,1.17.49,2.29,0,1.55-.32,2.58-.96,3.09-.64.51-1.93.76-3.88.76-2.1,0-3.48-.23-4.13-.7-.65-.47-.98-1.46-.98-2.98v-.79h1.46v.77c0,1.13.19,1.82.58,2.07.38.24,1.47.37,3.27.37,1.39,0,2.28-.15,2.65-.46s.56-1.05.56-2.22c0-.98-.18-1.62-.53-1.92s-1.12-.44-2.29-.44h-1.84Z"/>
    </g>
  </g>
</svg>